<?xml version="1.0" encoding="UTF-8"?>
<svg id="Layer_1" data-name="Layer 1" xmlns="http://www.w3.org/2000/svg" viewBox="0 0 1896.51 858.89">
  <defs>
    <style>
      .cls-1 {
        fill: #01aced;
        stroke-width: 0px;
      }
    </style>
  </defs>
  <g>
    <path class="cls-1" d="M6.86,159.07c0-13.69,1.78-26.83,5.34-39.43,3.56-12.59,8.62-24.5,15.2-35.73v150.31c-6.57-11.22-11.64-23.06-15.2-35.52-3.56-12.46-5.34-25.67-5.34-39.63ZM289.41,217.39c.27-.55.82-1.23,1.64-2.05.54-.55,1.16-1.03,1.85-1.44.68-.41,1.71-.62,3.08-.62,2.19,0,3.76.69,4.72,2.05.96,1.37,1.44,2.74,1.44,4.11,0,.55-.07,1.03-.21,1.44-.14.41-.21.76-.21,1.03v.82c-5.48,12.87-12.67,24.78-21.56,35.73-8.9,10.95-19.37,20.33-31.42,28.13-12.05,7.8-25.4,13.89-40.04,18.28-14.65,4.38-30.33,6.57-47.02,6.57-24.1,0-46.55-5.2-67.35-15.61-20.81-10.4-38.47-24.37-52.98-41.89V63.79c14.51-17.52,32.3-31.48,53.39-41.89,21.08-10.4,43.94-15.61,68.58-15.61,21.36,0,41,3.63,58.94,10.88,17.93,7.26,33.88,17.86,47.84,31.83,3.56,3.56,7.6,7.87,12.12,12.94,4.52,5.07,6.78,9.52,6.78,13.35,0,1.1-.55,2.53-1.64,4.31-1.1,1.78-2.88,2.67-5.34,2.67-1.37,0-2.81-.41-4.31-1.23-1.51-.82-2.53-1.78-3.08-2.87-11.5-18.07-26.97-32.24-46.41-42.51-19.44-10.27-41.07-15.4-64.89-15.4-6.03,0-11.91.41-17.66,1.23v275.16c2.73.55,5.4.82,8.01.82h8.01c15.61,0,30.04-1.91,43.33-5.75,13.28-3.83,25.32-9.3,36.14-16.43,10.81-7.12,20.33-15.54,28.54-25.26,8.21-9.72,14.79-20.6,19.71-32.65Z"/>
    <path class="cls-1" d="M321.44,159.07c0-13.96,1.78-27.24,5.34-39.84,3.55-12.59,8.76-24.64,15.61-36.14v151.55c-6.57-11.22-11.71-23.13-15.4-35.73-3.7-12.59-5.55-25.87-5.55-39.84ZM476.27,311.44c-24.1,0-46.48-5.13-67.15-15.4-20.68-10.27-38.27-24.03-52.77-41.27V63.38c14.51-17.52,32.24-31.42,53.18-41.68,20.95-10.27,43.74-15.4,68.38-15.4,21.36,0,41.27,3.56,59.75,10.68,18.48,7.12,34.56,17.25,48.26,30.39,13.69,13.14,24.44,28.95,32.24,47.43,7.8,18.48,11.7,38.95,11.7,61.4s-3.7,42.3-11.09,61.19c-7.39,18.89-17.8,35.32-31.21,49.28-13.42,13.96-29.57,24.92-48.46,32.85-18.89,7.94-39.84,11.91-62.84,11.91ZM477.92,20.26c-6.03,0-11.91.41-17.66,1.23v275.16c2.73.55,5.4.82,8.01.82h8.01c21.36,0,40.66-3.63,57.91-10.88,17.25-7.25,31.89-17.25,43.94-29.98,12.04-12.73,21.36-27.65,27.93-44.77,6.57-17.11,9.86-35.66,9.86-55.65s-3.56-39.22-10.68-56.06c-7.12-16.84-16.91-31.14-29.36-42.92-12.46-11.77-27.11-20.87-43.94-27.31-16.84-6.43-34.85-9.65-54.01-9.65Z"/>
    <path class="cls-1" d="M638.9,297.88c0-2.73,1.09-7.12,3.29-13.14,2.19-6.02,5.2-15.88,9.03-29.57l35.32-131.42,105.96,144.97-1.64,2.88c-.55.82-1.51,2.19-2.88,4.11-1.37,1.92-2.88,2.87-4.52,2.87-1.37,0-2.33-.41-2.88-1.23-.55-.82-1.23-1.78-2.05-2.87l-86.25-118.69-19.3,71.46c-3.84,13.96-6.64,25.67-8.42,35.11-1.78,9.45-3.36,17.11-4.72,23-1.37,5.89-2.81,10.13-4.31,12.73-1.51,2.6-3.77,3.9-6.78,3.9h-3.7c-1.37,0-2.74-.2-4.11-.62-1.37-.41-2.05-1.57-2.05-3.49ZM841.38,169.34l32.44-50.52,56.68,181.53h-15.61l-45.59-149.49-68.59,105.55-109.65-149.9,24.64-91.17c1.37-5.2,3.7-7.8,6.98-7.8,1.91,0,3.7.96,5.34,2.88l113.35,158.94ZM948.98,7.11c1.64,0,2.8.55,3.49,1.64.68,1.1,1.3,2.46,1.85,4.11l87.48,287.48h-96.92l-61.19-196.72,60.37-92.82c1.37-2.46,3.01-3.7,4.93-3.7Z"/>
    <path class="cls-1" d="M1072.59,13.27h13.14v287.07h-13.14V13.27ZM1099.7,300.35V13.27h99.8v287.07h-99.8Z"/>
    <path class="cls-1" d="M1265.21,295.42c0-4.11.21-9.45.62-16.02.41-6.57.62-12.18.62-16.84v-129.37l273.93,156.06v6.57c0,3.29-1.78,4.93-5.34,4.93-2.19,0-4.93-.96-8.21-2.87l-246.41-140.46v109.65c0,4.66.21,8.7.62,12.12.41,3.43.62,7.87.62,13.35,0,6.3-2.88,9.45-8.62,9.45-1.92,0-3.7-.55-5.34-1.64-1.64-1.09-2.46-2.73-2.46-4.93ZM1266.44,21.49c.27-4.11,2.19-6.16,5.75-6.16.82,0,1.91.07,3.29.2,1.37.14,3.01.76,4.93,1.85l246,137.58V42.43c0-3.29-.14-6.91-.41-10.88-.28-3.97-.41-6.78-.41-8.42,0-5.47,2.6-8.21,7.8-8.21,4.93,0,7.39,2.46,7.39,7.39,0,1.1-.07,3.9-.2,8.42-.14,4.52-.21,8.56-.21,12.12v230.4l-273.93-156.47V21.49Z"/>
    <path class="cls-1" d="M1583.9,159.07c0-13.69,1.78-26.83,5.34-39.43,3.55-12.59,8.62-24.5,15.19-35.73v150.31c-6.57-11.22-11.64-23.06-15.19-35.52-3.56-12.46-5.34-25.67-5.34-39.63ZM1867.69,216.98c2.46-4.93,4.79-11.5,6.98-19.71,2.19-8.21,3.29-17.52,3.29-27.93h-101.85c-4.38,0-8.7.14-12.94.41-4.25.28-7.87.41-10.88.41-2.2,0-3.9-.68-5.13-2.05-1.23-1.37-1.85-2.87-1.85-4.52,0-1.91.68-3.49,2.05-4.72,1.37-1.23,2.94-2.05,4.72-2.46,1.78-.41,3.63-.68,5.54-.82,1.91-.14,3.42-.21,4.52-.21h125.67c.54,0,1.37.28,2.46.82,1.09.55,1.64,2.61,1.64,6.16v7.8c0,8.21-.69,15.75-2.05,22.59-1.37,6.85-3.02,13.01-4.93,18.48-1.92,5.48-3.77,10.06-5.54,13.76-1.78,3.7-3.22,6.51-4.31,8.42-6.3,11.23-13.96,21.56-23,31.01-9.03,9.45-19.37,17.66-31.01,24.64-11.64,6.98-24.37,12.46-38.2,16.43-13.83,3.97-28.54,5.95-44.15,5.95-24.1,0-46.55-5.2-67.35-15.61-20.81-10.4-38.47-24.37-52.98-41.89V63.79c14.51-17.52,32.3-31.48,53.39-41.89,21.08-10.4,43.94-15.61,68.59-15.61,21.36,0,41,3.7,58.93,11.09,17.93,7.39,33.88,17.94,47.84,31.62,3.56,3.56,7.6,7.87,12.12,12.94,4.52,5.07,6.78,9.52,6.78,13.35,0,1.1-.55,2.53-1.64,4.31-1.1,1.78-2.88,2.67-5.34,2.67-1.37,0-2.81-.41-4.31-1.23-1.51-.82-2.53-1.78-3.08-2.87-11.5-18.07-26.97-32.24-46.41-42.51-19.44-10.27-41.07-15.4-64.89-15.4-6.03,0-11.91.41-17.66,1.23v275.16c2.73.55,5.4.82,8.01.82h8.01c29.02,0,53.93-6.43,74.75-19.3,20.8-12.87,37.1-29.7,48.87-50.52l1.64-2.87c.55-.55,1.03-1.37,1.44-2.46.41-1.09.89-2.32,1.44-3.7l.82-1.64Z"/>
  </g>
  <g>
    <path class="cls-1" d="M15.66,794.24c-1.7-2.11-3.18-4.45-4.45-6.99-1.27-2.54-1.91-5.29-1.91-8.26,0-2.11,1.05-4.76,3.18-7.94,2.11-3.18,5.5-4.76,10.16-4.76,2.11,0,3.91.54,5.4,1.59,1.48,1.06,2.64,2.01,3.49,2.86,1.27,1.7,2.32,3.18,3.18,4.45-.43,0,2.01,3.08,7.3,9.21,5.29,6.14,13.55,12.7,24.77,19.69,11.22,6.99,25.19,13.45,41.92,19.37,16.72,5.93,36.52,8.89,59.39,8.89,13.97,0,23.5-1.37,28.58-4.13,5.08-2.75,7.62-7.72,7.62-14.93,0-5.5-.95-10.8-2.86-15.88-1.9-5.08-3.92-8.67-6.03-10.8l-147.37-174.05c-10.59-12.28-19.28-25.93-26.04-40.97-6.78-15.03-10.59-30.38-11.43-46.05,0-1.69-.11-3.38-.32-5.08-.22-1.69-.32-3.38-.32-5.08,0-8.47.95-16.93,2.86-25.41,1.91-8.47,5.61-16.93,11.12-25.41v5.72c0,22.45,4.23,45.84,12.7,70.19,8.47,24.36,19.9,45.21,34.3,62.57,27.95,33.03,50.5,59.71,67.65,80.04,17.15,20.33,30.49,36.21,40.02,47.64,9.53,11.43,16.09,19.48,19.69,24.14,3.59,4.67,6.24,8.05,7.94,10.16,2.96,4.24,6.35,10.48,10.16,18.74s5.72,16.42,5.72,24.46v2.54c-.85,9.75-2.22,17.37-4.13,22.87-1.91,5.5-3.92,9.95-6.04,13.34l-2.54,3.18c-5.08.84-10.91,1.48-17.47,1.91-6.57.42-14.08.63-22.55.63-23.72,0-44.78-2.65-63.2-7.94-18.42-5.3-33.77-11.12-46.05-17.47-12.29-6.35-24.99-14.82-38.11-25.41-2.54-2.54-4.67-5.08-6.35-7.62ZM361.21,722.46c0,18.64-4.35,35.15-13.02,49.55-8.68,14.4-19.37,26.79-32.08,37.16-12.7,10.38-26.26,18.74-40.65,25.09-14.4,6.35-27.31,10.58-38.75,12.7,1.69-3.81,3.18-8.48,4.45-13.98,1.27-5.5,2.11-12.49,2.54-20.96v-3.18c0-10.58-2.22-20.85-6.67-30.81-4.45-9.94-8.37-17.68-11.75-23.18-3.39-5.92-8.26-12.7-14.61-20.33s-14.83-17.57-25.41-29.85c-10.59-12.28-23.82-27.63-39.7-46.05-15.88-18.42-35.25-41.61-58.12-69.55-12.7-15.66-22.87-34.3-30.49-55.9s-11.43-42.56-11.43-62.88c0-10.16,1.05-19.69,3.18-28.58,2.11-8.89,5.5-16.3,10.16-22.23,16.09-12.28,35.04-21.38,56.85-27.31,21.81-5.93,44.15-8.89,67.01-8.89,18.2,0,35.89,1.81,53.04,5.4,17.15,3.6,32.4,8.05,45.73,13.34,13.34,5.3,24.03,11.23,32.08,17.79,8.04,6.57,12.07,12.81,12.07,18.74,0,2.97-1.38,5.4-4.13,7.3-2.76,1.91-5.19,2.86-7.3,2.86s-4.03-.73-5.72-2.22c-1.7-1.48-2.97-2.86-3.81-4.13-6.78-8.04-15.04-14.61-24.77-19.69-9.75-5.08-19.91-9.1-30.49-12.07-10.59-2.96-21.28-4.97-32.08-6.03-10.8-1.05-20.44-1.59-28.9-1.59-5.93,0-10.91,1.06-14.93,3.18-4.03,2.12-6.03,6.99-6.03,14.61,0,5.94,1.05,12.18,3.18,18.74,2.11,6.57,4.86,12.39,8.26,17.47,3.81,6.78,10.05,15.46,18.74,26.04,8.67,10.59,18.31,22.13,28.9,34.62,10.58,12.5,21.81,25.31,33.67,38.43,11.85,13.13,23.07,25.73,33.66,37.79,10.58,12.07,19.9,22.98,27.95,32.71,8.04,9.75,13.76,17.37,17.15,22.87,3.81,6.35,7.4,13.34,10.8,20.96,2.96,6.78,5.61,14.51,7.94,23.18,2.32,8.68,3.49,18.32,3.49,28.9Z"/>
    <path class="cls-1" d="M406.31,617.02c0-21.6,2.75-42.13,8.26-61.61,5.5-19.47,13.55-38.11,24.14-55.9v234.39c-10.16-17.36-18.1-35.78-23.82-55.26-5.72-19.47-8.57-40.02-8.57-61.61ZM645.78,852.68c-37.27,0-71.89-7.94-103.85-23.82-31.98-15.88-59.18-37.16-81.62-63.84v-296c22.44-27.1,49.86-48.59,82.26-64.47,32.4-15.88,67.65-23.82,105.76-23.82,33.03,0,63.84,5.51,92.42,16.52,28.58,11.02,53.46,26.68,74.64,47,21.17,20.33,37.79,44.78,49.86,73.37,12.07,28.58,18.1,60.24,18.1,94.96s-5.72,65.43-17.15,94.65c-11.43,29.22-27.53,54.63-48.27,76.22-20.75,21.6-45.73,38.54-74.95,50.82-29.22,12.28-61.61,18.42-97.19,18.42ZM648.32,402.32c-9.32,0-18.42.63-27.31,1.91v425.58c4.23.85,8.36,1.27,12.39,1.27h12.39c33.03,0,62.89-5.61,89.56-16.83,26.68-11.22,49.33-26.68,67.97-46.37,18.63-19.69,33.03-42.77,43.19-69.24,10.16-26.46,15.25-55.15,15.25-86.07s-5.51-60.66-16.52-86.7c-11.02-26.04-26.15-48.17-45.42-66.38-19.27-18.2-41.92-32.29-67.97-42.24-26.04-9.94-53.89-14.93-83.53-14.93Z"/>
    <path class="cls-1" d="M916.37,617.02c0-21.6,2.75-42.13,8.26-61.61,5.5-19.47,13.55-38.11,24.14-55.9v234.39c-10.16-17.36-18.1-35.78-23.82-55.26-5.72-19.47-8.57-40.02-8.57-61.61ZM1155.84,852.68c-37.27,0-71.89-7.94-103.85-23.82-31.98-15.88-59.18-37.16-81.62-63.84v-296c22.44-27.1,49.86-48.59,82.26-64.47,32.4-15.88,67.65-23.82,105.76-23.82,33.03,0,63.84,5.51,92.42,16.52,28.58,11.02,53.46,26.68,74.64,47,21.17,20.33,37.79,44.78,49.86,73.37,12.07,28.58,18.1,60.24,18.1,94.96s-5.72,65.43-17.15,94.65c-11.43,29.22-27.53,54.63-48.27,76.22-20.75,21.6-45.73,38.54-74.95,50.82-29.22,12.28-61.61,18.42-97.19,18.42ZM1158.38,402.32c-9.32,0-18.42.63-27.31,1.91v425.58c4.23.85,8.36,1.27,12.39,1.27h12.39c33.03,0,62.89-5.61,89.56-16.83,26.68-11.22,49.33-26.68,67.97-46.37,18.63-19.69,33.03-42.77,43.19-69.24,10.16-26.46,15.25-55.15,15.25-86.07s-5.51-60.66-16.52-86.7c-11.02-26.04-26.15-48.17-45.42-66.38-19.27-18.2-41.92-32.29-67.97-42.24-26.04-9.94-53.89-14.93-83.53-14.93Z"/>
    <path class="cls-1" d="M1461.37,827.91c0-6.35.32-14.61.95-24.77.63-10.16.95-18.84.95-26.04v-200.09l423.68,241.38v10.16c0,5.08-2.76,7.62-8.26,7.62-3.39,0-7.62-1.48-12.7-4.45l-381.12-217.24v169.6c0,7.21.32,13.45.95,18.74.64,5.3.95,12.18.95,20.64,0,9.75-4.45,14.61-13.34,14.61-2.97,0-5.72-.85-8.26-2.54s-3.81-4.23-3.81-7.62ZM1463.28,404.23c.42-6.35,3.38-9.53,8.89-9.53,1.27,0,2.96.11,5.08.32,2.11.22,4.66,1.17,7.62,2.86l380.49,212.79v-174.05c0-5.08-.22-10.69-.64-16.83-.43-6.13-.63-10.48-.63-13.02,0-8.47,4.02-12.7,12.07-12.7,7.62,0,11.43,3.81,11.43,11.43,0,1.7-.11,6.03-.32,13.02-.22,6.99-.32,13.24-.32,18.74v356.35l-423.68-242.01v-147.37Z"/>
  </g>
</svg>